<svg width="148" height="250" viewBox="0 0 148 250" fill="none" xmlns="http://www.w3.org/2000/svg">
<g id="Group 30">
<path id="A" d="M72.0145 11.2294L71.2519 10.384L71.1454 11.5175C71.0967 12.0359 71.0317 12.5549 70.9454 12.9496C70.9228 12.8946 70.9 12.8353 70.8772 12.772C70.6951 12.2663 70.5456 11.5919 70.5087 10.9637C70.3719 8.55984 71.8809 6.65207 72.4377 5.97449C74.7157 3.21045 77.9695 2.31976 80.7581 1.56609C83.3537 0.869286 85.298 0.776809 88.4109 0.629936C92.5939 0.438113 94.5606 0.349863 96.7915 1.17136L96.7915 1.17139C99.8264 2.28851 101.578 4.34629 102.297 5.2137C106.675 10.4957 105.414 17.1803 105.05 19.0932C104.545 21.7015 103.523 24.1996 102.034 26.4589C99.1129 26.016 96.2385 25.3366 93.4437 24.4284C89.5309 23.1456 85.7956 21.4343 82.3162 19.3307L82.3162 19.3307L82.3109 19.3275C80.0708 18.0105 77.1738 16.2886 74.0298 13.2982L74.0297 13.2981C73.1651 12.4763 72.486 11.7522 72.0145 11.2294ZM70.9933 13.3525C70.9942 13.3524 70.9952 13.3523 70.9961 13.3523L70.9961 13.3523L70.9933 13.3525Z" fill="#FFC737" stroke="#484848"/>
<path id="B" d="M74.665 19.2797L74.6649 19.2797C74.6167 19.8518 74.4714 20.4104 74.2353 20.9268C74.1737 21.072 74.1062 21.2141 74.0331 21.3526C74.8091 21.2082 75.5723 20.9854 76.3128 20.6864L76.3228 20.6824L76.333 20.6788C77.1886 20.3756 77.9894 19.9052 78.6963 19.2884C78.9071 19.0988 79.1071 18.8949 79.2951 18.6779C78.9143 18.369 78.4389 17.9669 77.9112 17.4806L77.9103 17.4798C76.4552 16.1328 75.2993 14.7816 74.4776 13.8073C74.4272 13.7475 74.3782 13.6893 74.3306 13.6329C74.2386 13.5236 74.1519 13.4208 74.0704 13.3245C74.0745 13.3694 74.0784 13.4156 74.0819 13.463L74.665 19.2797ZM74.665 19.2797L74.6655 19.2716M74.665 19.2797L74.6655 19.2716M74.6655 19.2716C74.6957 18.8274 74.6411 18.5566 74.5551 18.2425C74.543 18.1981 74.5302 18.1529 74.517 18.1061C74.445 17.85 74.3585 17.5429 74.2708 17.0294C74.1572 16.3533 74.0945 15.6681 74.0833 14.9806M74.6655 19.2716L74.0833 14.9806M74.0833 14.9806C74.0794 14.6938 74.0865 14.505 74.0931 14.3278C74.0944 14.2933 74.0957 14.2592 74.0969 14.2249C74.1044 14.0072 74.107 13.7954 74.0819 13.4633L74.0833 14.9806Z" fill="#FFE6A8" stroke="#484848"/>
<path id="C" d="M73.0502 28.1597C73.0512 28.0916 73.0521 28.0279 73.0522 27.9673C73.0565 27.8494 73.0631 27.7406 73.0694 27.6367C73.0881 27.3277 73.1042 27.0622 73.0496 26.7324C73.0295 26.443 72.9328 26.1641 72.7693 25.924L72.7596 25.9097L72.7489 25.8962C72.558 25.6537 72.3352 25.5643 72.1326 25.5083C72.065 25.4896 72.0054 25.4753 71.9465 25.4611C71.8287 25.4328 71.7134 25.405 71.5411 25.3443L71.5275 25.3395L71.5136 25.3355C71.1479 25.23 70.8243 25.0157 70.5863 24.7221L70.5815 24.7163L70.5766 24.7105C70.5299 24.6563 70.5034 24.5889 70.5003 24.5192C70.5145 24.4744 70.5382 24.4328 70.5701 24.3971L70.5814 24.3846L70.5917 24.3714C70.7368 24.186 70.9047 24.0192 71.0917 23.8751L71.0918 23.8752L71.1009 23.8678C71.5311 23.5198 71.6873 23.1464 71.794 22.8865C71.9008 22.6262 71.9253 22.597 71.995 22.5611C72.0386 22.539 72.0757 22.5303 72.1667 22.5381C72.2216 22.5428 72.2837 22.5524 72.3758 22.5673L72.3853 22.5688C72.4704 22.5826 72.5744 22.5994 72.6912 22.6126C73.4714 22.7041 74.1219 22.5213 75.1749 22.2255C75.1957 22.2196 75.2167 22.2137 75.2379 22.2078L75.2379 22.2078L75.2403 22.2071C76.4791 21.8524 77.6532 21.304 78.7184 20.5824L78.757 20.5562L78.7902 20.5233L79.7149 19.6055C79.7324 19.6147 79.7504 19.6242 79.7688 19.6341C80.1573 19.8477 80.5274 20.0927 80.8753 20.3666L80.8939 20.3812L80.9138 20.394C83.0871 21.7942 84.8663 22.7366 85.6625 23.1437C87.204 23.9595 88.7935 24.6826 90.4224 25.3089L90.4241 25.3096C92.662 26.1606 94.4043 26.5951 96.3676 27.0803C97.8193 27.4409 99.1011 27.7141 100.144 27.9164C99.9901 28.1312 99.8145 28.3716 99.6193 28.6315L99.6185 28.6326C99.3199 29.0322 99.0405 29.3862 98.2549 30.3726C98.217 30.4199 98.1781 30.4686 98.138 30.5187C97.786 30.9586 97.3487 31.5051 96.8394 32.131C94.6683 32.1277 92.4991 32.2593 90.3444 32.5252L90.3436 32.5253C87.1586 32.9234 84.6247 33.2407 82.2286 33.9027L82.2286 33.9026L82.222 33.9045C80.5604 34.3883 78.8263 34.5797 77.0982 34.4699C76.482 34.4261 75.8953 34.1928 75.4196 33.8031L75.4196 33.8031L75.4156 33.7999C75.0439 33.5016 74.7607 33.1097 74.5953 32.6658C74.4929 32.3339 74.4358 31.99 74.4253 31.6431L74.425 31.6331L74.4243 31.623C74.4031 31.3223 74.4031 31.0204 74.4243 30.7197L74.4386 30.5173L74.3078 30.3622C74.1103 30.128 73.8923 29.9116 73.6565 29.7157L73.6493 29.7097L73.6418 29.704C73.6023 29.6735 73.5668 29.6384 73.5361 29.5995C73.4979 29.5493 73.4671 29.4943 73.4446 29.436V28.9318V28.6218L73.1669 28.484L73.0478 28.4249C73.0478 28.3286 73.0491 28.241 73.0502 28.1597Z" fill="#FEF6E1" stroke="#484848"/>
<path id="D" d="M65.588 62.3182L68.284 61.5302L68.2846 61.53C76.9762 59.0023 78.4096 58.6713 79.7476 58.4226C82.279 57.9509 84.85 57.6995 87.429 57.6713L87.4313 57.6713C94.9749 57.6243 99.5819 59.6262 100.69 60.1305L100.691 60.1309C100.759 60.1619 100.824 60.192 100.886 60.2211C101.247 58.4632 101.962 56.7875 102.992 55.288L102.999 55.2786L102.999 55.2787C103.807 54.1587 104.749 53.1327 105.804 52.2212L105.804 52.2212C106.205 51.8755 106.513 51.6364 106.859 51.3705C106.888 51.3483 106.918 51.3259 106.947 51.3032C107.27 51.0557 107.636 50.7752 108.153 50.3546C109.048 49.6264 109.76 48.9896 110.283 48.502C109.686 47.9172 109.045 47.3731 108.367 46.8736L108.366 46.873C108.008 46.6086 106.578 45.5769 103.209 44.1453C101.989 43.6273 101.155 43.3287 100.469 43.0829C100.275 43.0136 100.093 42.9484 99.9176 42.8837C99.1076 42.5852 98.4519 42.3024 97.4892 41.6933L97.4891 41.6932C96.5218 41.0809 95.8835 40.4337 94.714 39.248L94.674 39.2075L94.6736 39.2072C94.199 38.725 93.4887 37.9858 93.3645 36.8687L93.3643 36.8667C93.3406 36.6461 93.3406 36.4237 93.3643 36.2031L93.4145 35.7337L93.886 35.7569C94.2647 35.7755 94.6388 35.8468 94.9965 35.9688L94.9979 35.9692C95.1254 36.0131 95.238 36.0609 95.3059 36.0897C95.3267 36.0985 95.3433 36.1055 95.3549 36.1102C95.3997 36.128 95.4066 36.1279 95.4166 36.1278C95.4175 36.1278 95.4185 36.1278 95.4195 36.1278H95.4208C95.5345 36.1281 95.6448 36.0987 95.7394 36.0445C95.8303 35.9925 95.9022 35.9204 95.9505 35.8377C95.9661 35.8041 95.97 35.773 95.9322 35.5966C95.9304 35.5883 95.9286 35.5799 95.9267 35.5713C95.8835 35.3717 95.8171 35.0647 95.9048 34.6637L95.907 34.6538L95.9071 34.6539C95.9192 34.6034 95.9331 34.5535 95.9487 34.5042C95.421 34.4958 94.7883 34.4984 94.0769 34.5273C93.4053 34.5559 92.0242 34.6329 88.297 35.2635L65.588 62.3182ZM65.588 62.3182C65.7156 59.7465 65.1811 57.8596 64.7242 56.6894L64.7237 56.6883C64.1145 55.139 63.2357 53.8501 61.5554 51.3893C61.5553 51.3892 61.5553 51.3892 61.5552 51.3891L61.1423 51.6711C60.2757 50.4008 59.5181 49.3812 59 48.6996M65.588 62.3182L60.7028 47.5809M59 48.6996L59.394 49.0074C59.4725 48.9069 59.5526 48.8076 59.6344 48.7095C59.551 48.5987 59.4721 48.4944 59.3981 48.397L59 48.6996ZM59 48.6996C59.4129 48.171 59.8688 47.6742 60.3633 47.2138M60.3633 47.2138L60.7015 47.582C60.7019 47.5817 60.7024 47.5813 60.7028 47.5809M60.3633 47.2138C61.3419 46.315 62.4583 45.5635 63.6742 44.9852L88.2969 35.2636C87.5185 35.3954 86.7832 35.5239 86.0733 35.6479C84.2056 35.9741 82.5138 36.2697 80.6761 36.5161C80.7303 36.8083 80.7477 37.1067 80.7273 37.4048L80.7267 37.413L80.7267 37.413C80.6509 38.3037 80.2519 39.1371 79.6044 39.7709C79.1152 40.2512 78.5132 40.6097 77.8509 40.8178C74.0942 42.0762 72.1956 42.7111 70.231 43.2394L70.231 43.2394C66.404 44.2683 64.7206 45.0303 63.8937 45.4344L63.8889 45.4367L63.8889 45.4367C62.7181 45.9936 61.6438 46.7168 60.7028 47.5809M60.3633 47.2138L60.704 47.5797C60.7036 47.5801 60.7032 47.5805 60.7028 47.5809" fill="#FFBF1A" stroke="#484848"/>
<path id="F" d="M67.4586 76.9203L67.4585 76.9165C67.4374 74.1895 67.4107 71.7217 67.0719 68.7867C66.9766 67.9484 66.8221 66.792 66.5689 65.4087C67.299 65.1397 68.2661 64.7982 69.4086 64.437C71.007 63.9399 72.0894 63.6631 73.5947 63.2782C73.7814 63.2305 73.9746 63.1811 74.1761 63.1294C76.9518 62.4187 78.2065 62.0503 79.03 61.8081L79.05 61.8022C79.8478 61.5675 80.2224 61.4573 81.2413 61.2574L81.2413 61.2575L81.248 61.2561C83.2383 60.8375 85.262 60.5896 87.2963 60.5152C89.3822 60.4539 91.4694 60.5779 93.5325 60.8857L93.5325 60.8857L93.537 60.8863C94.9852 61.0887 95.9386 61.3264 97.8943 61.8154L97.8966 61.8159C98.2747 61.9085 99.0379 62.1047 99.783 62.4038C100.156 62.5534 100.511 62.7239 100.807 62.9128C101.107 63.1043 101.313 63.2947 101.425 63.4723C101.425 63.4729 101.426 63.4736 101.426 63.4743L101.998 64.4089L102.423 65.1023C102.035 65.8302 101.689 66.5787 101.385 67.3444L101.385 67.345C100.51 69.5578 100.272 71.2793 99.8008 74.6792C99.7471 75.0671 99.6903 75.4768 99.6292 75.9116L99.6292 75.9118C99.5991 76.1269 99.5401 76.5414 99.4666 77.0576C99.3005 78.225 99.0604 79.9125 98.9124 80.9909C97.6288 81.1864 95.8554 81.4378 93.7404 81.683L93.7403 81.683C89.2269 82.2069 84.9584 82.6811 79.6348 82.4315C74.3158 82.1821 72.0748 81.4056 70.4379 80.6038C69.3819 80.0855 68.3835 79.4622 67.4585 78.7439V78.7437V78.7405V78.7373V78.7341V78.7308V78.7276V78.7243V78.7211V78.7178V78.7146V78.7113V78.708V78.7048V78.7015V78.6982V78.6949V78.6916V78.6883V78.685V78.6817V78.6784V78.675V78.6717V78.6684V78.665V78.6617V78.6583V78.655V78.6516V78.6483V78.6449V78.6415V78.6381V78.6347V78.6313V78.6279V78.6245V78.6211V78.6177V78.6143V78.6109V78.6075V78.604V78.6006V78.5971V78.5937V78.5902V78.5868V78.5833V78.5799V78.5764V78.5729V78.5694V78.5659V78.5624V78.5589V78.5554V78.5519V78.5484V78.5449V78.5414V78.5378V78.5343V78.5308V78.5272V78.5237V78.5201V78.5166V78.513V78.5094V78.5059V78.5023V78.4987V78.4951V78.4915V78.4879V78.4843V78.4807V78.4771V78.4735V78.4698V78.4662V78.4626V78.4589V78.4553V78.4516V78.448V78.4443V78.4407V78.437V78.4333V78.4296V78.426V78.4223V78.4186V78.4149V78.4112V78.4075V78.4037V78.4V78.3963V78.3926V78.3888V78.3851V78.3814V78.3776V78.3739V78.3701V78.3663V78.3626V78.3588V78.355V78.3513V78.3475V78.3437V78.3399V78.3361V78.3323V78.3285V78.3246V78.3208V78.317V78.3132V78.3093V78.3055V78.3017V78.2978V78.294V78.2901V78.2862V78.2824V78.2785V78.2746V78.2707V78.2668V78.263V78.2591V78.2552V78.2513V78.2473V78.2434V78.2395V78.2356V78.2317V78.2277V78.2238V78.2198V78.2159V78.2119V78.208V78.204V78.2V78.1961V78.1921V78.1881V78.1841V78.1801V78.1761V78.1721V78.1681V78.1641V78.1601V78.1561V78.1521V78.1481V78.144V78.14V78.1359V78.1319V78.1278V78.1238V78.1197V78.1157V78.1116V78.1075V78.1034V78.0994V78.0953V78.0912V78.0871V78.083V78.0789V78.0748V78.0707V78.0665V78.0624V78.0583V78.0542V78.05V78.0459V78.0417V78.0376V78.0334V78.0293V78.0251V78.0209V78.0168V78.0126V78.0084V78.0042V78V77.9958V77.9916V77.9874V77.9832V77.979V77.9748V77.9706V77.9663V77.9621V77.9579V77.9536V77.9494V77.9451V77.9409V77.9366V77.9323V77.9281V77.9238V77.9195V77.9153V77.911V77.9067V77.9024V77.8981V77.8938V77.8895V77.8852V77.8809V77.8765V77.8722V77.8679V77.8636V77.8592V77.8549V77.8505V77.8462V77.8418V77.8375V77.8331V77.8287V77.8244V77.82V77.8156V77.8112V77.8068V77.8024V77.798V77.7936V77.7892V77.7848V77.7804V77.776V77.7716V77.7671V77.7627V77.7583V77.7538V77.7494V77.7449V77.7405V77.736V77.7316V77.7271V77.7226V77.7182V77.7137V77.7092V77.7047V77.7002V77.6957V77.6912V77.6867V77.6822V77.6777V77.6732V77.6687V77.6642V77.6596V77.6551V77.6506V77.646V77.6415V77.6369V77.6324V77.6278V77.6233V77.6187V77.6141V77.6095V77.605V77.6004V77.5958V77.5912V77.5866V77.582V77.5774V77.5728V77.5682V77.5636V77.559V77.5543V77.5497V77.5451V77.5405V77.5358V77.5312V77.5265V77.5219V77.5172V77.5126V77.5079V77.5032V77.4986V77.4939V77.4892V77.4845V77.4798V77.4751V77.4704V77.4657V77.461V77.4563V77.4516V77.4469V77.4422V77.4375V77.4327V77.428V77.4233V77.4185V77.4138V77.409V77.4043V77.3995V77.3948V77.39V77.3853V77.3805V77.3757V77.3709V77.3662V77.3614V77.3566V77.3518V77.347V77.3422V77.3374V77.3326V77.3278V77.3229V77.3181V77.3133V77.3085V77.3036V77.2988V77.294V77.2891V77.2843V77.2794V77.2746V77.2697V77.2648V77.26V77.2551V77.2502V77.2454V77.2405V77.2356V77.2307V77.2258V77.2209V77.216V77.2111V77.2062V77.2013V77.1964V77.1914V77.1865V77.1816V77.1767V77.1717V77.1668V77.1619V77.1569V77.152V77.147V77.142V77.1371V77.1321V77.1272V77.1222V77.1172V77.1122V77.1072V77.1023V77.0973V77.0923V77.0873V77.0823V77.0773V77.0723V77.0673V77.0622V77.0572V77.0522V77.0472V77.0421V77.0371V77.0321V77.027V77.022V77.0169V77.0119V77.0068V77.0018V76.9967V76.9916V76.9866V76.9815V76.9764V76.9713V76.9663V76.9612V76.9561V76.951V76.9459V76.9408V76.9357V76.9306V76.9255L67.4586 76.9203Z" fill="#FFE6A8" stroke="#484848"/>
<path id="E" d="M106.066 57.0536L106.066 57.0536C105.076 58.3536 104.249 59.444 103.825 61.0919C103.68 61.6604 103.525 62.2704 103.503 62.8778C103.481 63.4736 103.588 64.026 103.934 64.4995C104.305 64.9718 104.822 65.3124 105.409 65.4683L105.564 65.5096L105.666 65.6338C107.879 68.3228 109.902 71.1597 111.719 74.1243C113.87 77.6332 115.055 80.2129 118.162 86.9747C118.283 87.2388 118.407 87.5093 118.535 87.7865L106.066 57.0536ZM106.066 57.0536L106.072 57.045M106.066 57.0536L106.072 57.045M106.072 57.045C106.772 56.0846 107.59 55.2139 108.507 54.453C108.811 54.2047 109.04 54.04 109.4 53.7816C109.72 53.5513 110.144 53.2466 110.817 52.7418C111.322 52.363 111.763 52.0247 112.12 51.7474C113.185 53.5997 114.114 55.5253 114.9 57.5096C115.586 59.2421 116.162 61.0148 116.627 62.8175L116.627 62.8175M106.072 57.045L116.627 62.8175M116.627 62.8175L116.628 62.8226M116.627 62.8175L116.628 62.8226M116.628 62.8226C117.717 66.8772 119.759 71.7747 123.825 81.4794C125.144 84.6288 125.945 86.4497 126.509 87.7313C127.309 89.5485 127.632 90.2817 128.274 92.1809C128.635 93.2507 128.945 94.2416 129.303 95.3854C129.394 95.6754 129.488 95.9752 129.586 96.2887C130.073 97.8368 130.671 99.7069 131.571 102.342C133.363 107.591 133.868 108.605 134.749 109.766L134.749 109.766M116.628 62.8226L134.749 109.766M134.749 109.766C135.404 110.63 135.788 110.944 136.551 111.569L136.573 111.587C137.334 112.21 138.514 113.179 140.813 115.384L140.813 115.384M134.749 109.766L140.813 115.384M140.813 115.384C140.875 115.443 140.936 115.502 140.996 115.559C141.956 116.482 142.621 117.121 143.744 117.423M140.813 115.384L145.941 128.859M145.941 128.859C145.161 127.801 144.52 126.906 144.048 126.238L144.048 126.238C142.351 123.834 141.97 123.137 141.678 122.522L141.676 122.519C141.23 121.565 140.893 120.565 140.671 119.538L140.547 118.965L141.131 118.933C141.796 118.895 142.462 118.895 143.127 118.933L143.127 118.933C143.537 118.956 143.871 118.989 144.195 119.021C144.73 119.074 145.238 119.124 146.008 119.124C146.553 119.124 146.878 119.101 147.088 119.055C147.275 119.015 147.331 118.965 147.372 118.916L147.38 118.907L147.38 118.907C147.437 118.844 147.474 118.769 147.491 118.688C147.505 118.615 147.503 118.54 147.482 118.469C147.461 118.433 147.411 118.383 147.296 118.328C147.165 118.267 147.013 118.229 146.863 118.193C145.121 117.784 143.865 117.456 143.744 117.423M145.941 128.859C145.954 128.918 145.954 128.979 145.942 129.039C145.927 129.11 145.896 129.177 145.849 129.235C145.758 129.307 145.643 129.348 145.523 129.348C145.395 129.348 145.273 129.302 145.179 129.219C144.5 128.6 143.795 127.909 143.076 127.141C142.3 126.31 141.612 125.498 141.003 124.723C140.955 124.634 140.893 124.553 140.819 124.483C140.726 124.396 140.617 124.33 140.498 124.286C140.379 124.243 140.252 124.225 140.126 124.232C140 124.239 139.876 124.271 139.762 124.327C139.649 124.384 139.548 124.462 139.465 124.559C139.383 124.656 139.321 124.769 139.284 124.891C139.247 125.012 139.235 125.141 139.25 125.267C139.257 125.328 139.27 125.388 139.289 125.446C139.151 126.647 139.299 127.863 139.721 128.999L139.721 128.999L139.724 129.007C139.944 129.568 140.12 130.176 140.485 131.454L140.485 131.454C140.556 131.703 140.614 131.915 140.629 132.095C140.633 132.151 140.633 132.195 140.629 132.228L140.248 131.475C138.753 128.509 138.531 128.011 138.328 127.493C138.021 126.702 137.769 125.891 137.573 125.067L137.53 124.884L137.377 124.775C137.269 124.699 137.121 124.602 136.962 124.539C136.831 124.486 136.536 124.393 136.252 124.56L136.249 124.561C136.02 124.698 135.938 124.924 135.909 125.084C135.879 125.246 135.887 125.422 135.908 125.588C135.95 125.925 136.064 126.36 136.221 126.865C136.527 127.843 136.837 128.575 137.137 129.232C137.218 129.409 137.297 129.579 137.375 129.744C137.587 130.199 137.786 130.626 137.979 131.116L137.979 131.116C138.274 131.865 138.505 132.636 138.671 133.422C138.596 133.463 138.513 133.49 138.426 133.499C138.338 133.494 138.224 133.45 138.066 133.302C137.892 133.139 137.713 132.895 137.506 132.577C136.512 131.045 135.986 129.538 135.427 127.897C135.427 127.897 135.427 127.897 135.427 127.896L134.845 126.173L134.8 126.038L134.691 125.948C134.465 125.76 134.18 125.658 133.887 125.658C133.593 125.658 133.309 125.76 133.083 125.948L133.071 125.958L133.059 125.968C132.888 126.13 132.765 126.337 132.708 126.566C132.662 126.747 132.658 126.935 132.696 127.117C132.452 128.454 132.664 129.372 132.947 129.991L132.948 129.992C132.976 130.053 133.004 130.113 133.033 130.171C133.2 130.519 133.35 130.832 133.294 131.25L133.294 131.25L133.293 131.258C133.289 131.292 133.274 131.401 133.241 131.509C133.163 131.44 133.072 131.342 132.976 131.223C132.759 130.953 132.575 130.651 132.493 130.517C132.485 130.504 132.478 130.492 132.472 130.483C132.142 129.926 131.696 128.944 131.574 125.929C131.557 125.511 131.563 124.522 131.575 122.502V122.499V122.492V122.485V122.478V122.471V122.464V122.457V122.451V122.444V122.437V122.43V122.423V122.416V122.41V122.403V122.396V122.389V122.383V122.376V122.369V122.362V122.356V122.349V122.342V122.336V122.329V122.322V122.316V122.309V122.302V122.296V122.289V122.283V122.276V122.269V122.263V122.256V122.25V122.243V122.237V122.23V122.224V122.217V122.211V122.204V122.198V122.191V122.185V122.178V122.172V122.165V122.159V122.152V122.146V122.14V122.133V122.127V122.12V122.114V122.108V122.101V122.095V122.089V122.082V122.076V122.07V122.063V122.057V122.051V122.045V122.038V122.032V122.026V122.019V122.013V122.007V122.001V121.995V121.988V121.982V121.976V121.97V121.963V121.957V121.951V121.945V121.939V121.933V121.926V121.92V121.914V121.908V121.902V121.896V121.89V121.884V121.878V121.871V121.865V121.859V121.853V121.847V121.841V121.835V121.829V121.823V121.817V121.811V121.805V121.799V121.793V121.787V121.781V121.775V121.769V121.763V121.757V121.751V121.745V121.739V121.733V121.727V121.721V121.715V121.709V121.703V121.697V121.691V121.685V121.679V121.674V121.668V121.662V121.656V121.65V121.644V121.638V121.632V121.626V121.62V121.615V121.609V121.603V121.597V121.591V121.585V121.579V121.574V121.568V121.562V121.556V121.55V121.544V121.538V121.533V121.527V121.521V121.515V121.509V121.504V121.498V121.492V121.486V121.48V121.475V121.469V121.463V121.457V121.451V121.446V121.44V121.434V121.428V121.422V121.417V121.411V121.405V121.399V121.394V121.388V121.382V121.376V121.37V121.365V121.359V121.353V121.347V121.342V121.336V121.33V121.324V121.319V121.313V121.307V121.301V121.296V121.29V121.284V121.278V121.273V121.267V121.261V121.256V121.25V121.244V121.238V121.233V121.227V121.221V121.215V121.21V121.204V121.198V121.192V121.187V121.181V121.175V121.169V121.164V121.158V121.152V121.147V121.141V121.135V121.129V121.124V121.118V121.112V121.106V121.101V121.095V121.089V121.083V121.078V121.072V121.066V121.06V121.055V121.049V121.043V121.037V121.032V121.026V121.02V121.014V121.009V121.003V120.997V120.991V120.985V120.98V120.974V120.968V120.962V120.957V120.951V120.945V120.939V120.933V120.928V120.922V120.916V120.91V120.904V120.899V120.893V120.887V120.881V120.875V120.87V120.864V120.858V120.852V120.846V120.84V120.835V120.829V120.823V120.817V120.811V120.805V120.799V120.794V120.788V120.782V120.776V120.77V120.764V120.758V120.752V120.747V120.741V120.735V120.729V120.723V120.717V120.711V120.705V120.699V120.693V120.687V120.681V120.675V120.67V120.664V120.658V120.652V120.646V120.64V120.634V120.628V120.622V120.616V120.61V120.604V120.598V120.592V120.586V120.58V120.574V120.568V120.562V120.555V120.549V120.543V120.537V120.531V120.525V120.519V120.513V120.507V120.501V120.495V120.489V120.482V120.476V120.47V120.464V120.458V120.452V120.446V120.439V120.433V120.427V120.421V120.415V120.408V120.402V120.396V120.39V120.384V120.377V120.371V120.365V120.359V120.352V120.346V120.34V120.333V120.327V120.321V120.314V120.308V120.302V120.295V120.289V120.283V120.276V120.27V120.264V120.257V120.251V120.244V120.238V120.232V120.225V120.219V120.212V120.206V120.199V120.193V120.186V120.18V120.173V120.167V120.16V120.154V120.147V120.141V120.134V120.128V120.121V120.114V120.108V120.101V120.095V120.088V120.081V120.075V120.068V120.061V120.055V120.048V120.041V120.035V120.028V120.021V120.015V120.008V120.001V119.994V119.988V119.981V119.974V119.967V119.96V119.953V119.947V119.94V119.933V119.926V119.919V119.912V119.905V119.898V119.892V119.885V119.878V119.871V119.864V119.857V119.85V119.843V119.836V119.829V119.822V119.815V119.808V119.8V119.793V119.786V119.779V119.772V119.765V119.758V119.751V119.743V119.736V119.729V119.722V119.715V119.707V119.7V119.693V119.686V119.678V119.671V119.664V119.656V119.649V119.642V119.634V119.627V119.62V119.612V119.605V119.597V119.59V119.582V119.575V119.567V119.56V119.552V119.545V119.537V119.53V119.522V119.515V119.507V119.499V119.492V119.484V119.477V119.469V119.461V119.454V119.446V119.438V119.43V119.423V119.415V119.407V119.399V119.391V119.384V119.376V119.368V119.36V119.352V119.344V119.336V119.328V119.32V119.313V119.305V119.297V119.289V119.281V119.272V119.264V119.256V119.248V119.24C131.575 117.898 131.564 117.117 131.372 116.082M145.941 128.859L131.372 116.084L131.372 116.083L131.372 116.083L131.372 116.083L131.372 116.082M143.744 117.423C143.743 117.422 143.743 117.422 143.742 117.422L143.875 116.94L143.745 117.423C143.745 117.423 143.744 117.423 143.744 117.423ZM131.372 116.082L131.372 116.08L131.37 116.073L131.365 116.045C131.361 116.021 131.354 115.987 131.345 115.944C131.328 115.857 131.302 115.735 131.269 115.589L131.269 115.588L130.782 115.7L131.269 115.588L131.269 115.588L131.269 115.588L131.269 115.587L131.268 115.586L131.267 115.58L131.263 115.562L131.246 115.492C131.232 115.432 131.211 115.348 131.185 115.246C131.132 115.043 131.057 114.769 130.97 114.49C130.916 114.32 130.707 113.836 130.393 113.138C130.07 112.421 129.617 111.438 129.056 110.239C127.934 107.841 126.376 104.572 124.544 100.815M131.372 116.082L124.544 100.815M124.544 100.815C121.797 94.876 119.715 90.3543 118.535 87.7866L124.544 100.815ZM133.364 131.597C133.368 131.599 133.37 131.599 133.37 131.6C133.37 131.6 133.368 131.599 133.364 131.597Z" fill="#FEEFCA" stroke="#484848"/>
<path id="E_2" d="M6.37484 106.069C5.94926 105.968 5.59637 105.897 5.25175 105.829C4.69592 105.718 4.16157 105.612 3.37832 105.386L3.37639 105.386C2.82377 105.229 2.49588 105.109 2.292 104.998C2.10753 104.898 2.0577 104.825 2.02761 104.761L2.02768 104.761L2.02386 104.753C1.98818 104.68 1.97384 104.6 1.9818 104.521C1.98906 104.449 2.01477 104.379 2.05729 104.317C2.09038 104.287 2.16043 104.25 2.30389 104.231C2.46097 104.211 2.62979 104.222 2.79642 104.233C4.64997 104.358 6.01111 104.423 6.2038 104.426C7.42944 104.472 8.2859 104.06 9.54386 103.456C9.61786 103.42 9.69324 103.384 9.77018 103.347C12.7632 101.917 14.2501 101.339 15.209 100.968L15.2397 100.957C16.1972 100.586 16.6776 100.4 17.5999 99.7692L17.6021 99.7677C18.8339 98.9154 19.6448 98.092 23.0192 93.581C24.713 91.3168 25.8736 89.6957 26.8257 88.3522C26.9997 88.1068 27.1665 87.8709 27.3282 87.6422C28.0523 86.6182 28.6733 85.7399 29.3733 84.8009L29.374 84.8C30.5858 83.1667 31.131 82.5584 32.4729 81.0612C33.4256 79.9982 34.7799 78.4871 37.0595 75.8431L37.0779 75.8217C44.061 67.7229 47.5894 63.6308 49.8907 60.061L49.8935 60.0565C52.0674 56.6046 54.7216 53.4673 57.779 50.735C58.0019 51.031 58.2698 51.3809 58.571 51.7742C58.6559 51.8851 58.7435 51.9995 58.8334 52.1171L58.8363 52.1208C59.3738 52.8097 59.7158 53.2307 59.9744 53.549C60.2631 53.9045 60.4478 54.1319 60.6845 54.4612C61.3919 55.4621 61.9685 56.5456 62.4012 57.6864L62.4011 57.6864L62.4053 57.6967C63.0321 59.2447 63.5511 60.5394 63.496 62.2475L63.496 62.2476C63.4771 62.8382 63.4548 63.4684 63.2993 64.0561C63.1476 64.6297 62.8778 65.1265 62.3857 65.4795C61.8538 65.828 61.2219 66.0035 60.5804 65.9795L60.4258 65.9737L60.295 66.0562C57.2585 67.9719 54.3622 70.0934 51.6274 72.4052L51.6273 72.4053C48.4074 75.1293 46.4408 77.2534 41.2988 82.8072C41.0908 83.0318 40.8777 83.262 40.659 83.4982C38.7003 85.6128 35.2443 89.3397 30.6952 94.2228C27.7235 97.2845 25.1729 99.9598 23.3233 101.929C22.3982 102.913 21.6476 103.722 21.1071 104.315C20.5809 104.892 20.2249 105.294 20.1198 105.443C19.9477 105.686 19.7912 105.928 19.6783 106.107C19.6216 106.198 19.5755 106.273 19.5433 106.326L19.506 106.389L19.4959 106.405L19.4934 106.41L19.4932 106.41L19.4929 106.411C19.4152 106.541 19.3524 106.651 19.3089 106.728C19.2871 106.767 19.27 106.798 19.2583 106.819L19.2447 106.844L19.241 106.851L19.2399 106.853L19.2396 106.853L19.2395 106.854L19.2394 106.854L19.2394 106.854L19.6795 107.091L19.2394 106.854L19.2388 106.855C18.7387 107.789 18.4934 108.538 18.1002 109.831C18.1001 109.832 18.0999 109.832 18.0998 109.833L18.0698 109.929C17.6778 111.194 17.4729 111.855 17.1391 112.968C17.1391 112.968 17.1391 112.968 17.1391 112.968L17.1072 113.075C16.5446 114.949 16.2671 115.874 16.1295 116.264C15.1196 119.125 14.3728 119.932 13.8703 120.372L13.8687 120.373C13.7829 120.449 13.4745 120.718 13.1422 120.931C12.9826 121.034 12.839 121.11 12.726 121.15C12.7195 121.027 12.7387 120.9 12.7458 120.856L12.7459 120.855C12.8111 120.443 13.0518 120.192 13.3251 119.907C13.3716 119.859 13.419 119.809 13.4668 119.758L13.4669 119.758L13.475 119.749C13.92 119.245 14.4202 118.429 14.5677 117.064C14.6605 116.898 14.7133 116.712 14.7203 116.521C14.7293 116.277 14.664 116.037 14.5337 115.832L14.5256 115.819L14.5168 115.807C14.344 115.567 14.096 115.393 13.8134 115.309C13.5309 115.226 13.2282 115.237 12.9527 115.341L12.8151 115.393L12.7277 115.511C12.3133 116.072 11.9449 116.569 11.6278 116.993L11.6273 116.994C10.5763 118.404 9.59452 119.696 8.12995 120.872C7.82559 121.115 7.56927 121.298 7.34118 121.404C7.12805 121.504 6.98722 121.515 6.88023 121.486C6.78618 121.449 6.70225 121.394 6.63236 121.326C7.02978 120.623 7.48751 119.955 8.00075 119.327C8.33923 118.919 8.66562 118.571 9.01169 118.202C9.14247 118.062 9.27606 117.92 9.41418 117.77C9.9133 117.228 10.4449 116.617 11.0446 115.768L11.0447 115.768C11.3534 115.33 11.5987 114.946 11.7422 114.634C11.813 114.48 11.8746 114.31 11.8928 114.141C11.9114 113.968 11.8898 113.728 11.7057 113.534L11.7058 113.534L11.7014 113.529C11.4762 113.298 11.1707 113.298 11.0247 113.309C10.8493 113.322 10.6738 113.369 10.5424 113.411L10.3618 113.468L10.2643 113.63C9.823 114.366 9.32729 115.069 8.78116 115.734C8.63504 115.912 8.52337 116.104 8.41392 116.294C8.4048 116.31 8.39561 116.326 8.38634 116.342C8.2812 116.526 8.16462 116.729 7.99912 116.98C7.64094 117.521 7.04195 118.301 5.86259 119.483L5.86206 119.483C5.78462 119.561 5.68913 119.595 5.50424 119.624C5.48759 119.627 5.46708 119.63 5.444 119.633C5.36685 119.644 5.26102 119.66 5.17476 119.68C5.10542 119.697 5.01761 119.723 4.92708 119.769C4.87343 119.773 4.82678 119.78 4.79175 119.786C4.74335 119.794 4.69571 119.803 4.65573 119.811L4.63233 119.816C4.61825 119.819 4.60516 119.822 4.59262 119.824C4.54846 119.743 4.52218 119.682 4.50058 119.587C4.4623 119.42 4.44122 119.134 4.49769 118.548C4.53683 118.142 4.86016 117.7 5.34343 117.24C5.55503 117.039 5.77451 116.854 5.98055 116.681L6.03602 116.635C6.24045 116.463 6.46473 116.274 6.60271 116.106L6.60355 116.105C6.68862 116.001 6.80534 115.894 6.93909 115.77C7.3968 115.348 8.05398 114.742 8.32494 113.469C8.36186 113.413 8.39277 113.353 8.41694 113.291C8.46226 113.173 8.48281 113.047 8.47713 112.921C8.47145 112.795 8.43967 112.671 8.38407 112.558C8.32945 112.447 8.2531 112.349 8.16001 112.268C7.97694 112.106 7.7396 112.019 7.49614 112.022C7.26776 112.026 7.0471 112.109 6.87357 112.257C6.02193 112.824 5.07517 113.407 4.03494 113.969L4.03254 113.971C3.07802 114.494 2.15589 114.945 1.28137 115.338C1.14741 115.392 0.997791 115.399 0.85854 115.358C0.72698 115.319 0.614291 115.239 0.536048 115.134C0.507299 115.069 0.49554 115 0.501513 114.93C0.506484 114.873 0.52366 114.816 0.552164 114.765C1.65862 113.983 2.57587 113.314 3.25247 112.813C5.68838 111.013 6.28314 110.461 6.76384 109.949C7.4983 109.169 8.13758 108.308 8.66859 107.382L8.96787 106.86L8.40037 106.661C7.73647 106.429 7.06032 106.231 6.37484 106.069ZM6.37484 106.069C6.37473 106.069 6.37461 106.069 6.3745 106.069L6.25971 106.556L6.37556 106.069C6.37532 106.069 6.37508 106.069 6.37484 106.069ZM8.07893 117.735C7.79787 118.036 7.51451 118.347 7.22932 118.691L7.2275 118.693C7.08804 118.864 6.9524 119.037 6.82066 119.213C6.63736 119.408 6.43666 119.615 6.21652 119.836C5.99423 120.059 5.72445 120.098 5.49305 120.132C5.31975 120.157 5.16798 120.179 5.07381 120.273C4.9852 120.254 4.86063 120.28 4.7347 120.306C4.54351 120.345 4.34918 120.385 4.27274 120.273L8.07893 117.735Z" fill="#FEEFCA" stroke="#484848"/>
<path id="H" d="M97.4275 104.942L97.4276 104.942L97.4145 104.938C95.8936 104.483 94.4952 103.661 93.3334 102.536C92.7121 101.918 90.5176 99.7219 90.5001 96.4827C90.4914 94.5919 91.2253 93.2048 91.7434 92.26C93.5394 88.9904 96.5152 87.4227 98.2363 86.7306C98.046 93.0563 98.757 99.3768 100.346 105.486C99.3561 105.436 98.375 105.254 97.4275 104.942Z" fill="#FFE6A8" stroke="#484848"/>
<path id="G" d="M96.6995 105.862C98.3841 106.557 100.194 106.893 102.016 106.849C102.345 108.297 102.673 109.745 103 111.192L96.6995 105.862ZM96.6995 105.862L96.6971 105.861M96.6995 105.862L96.6971 105.861M96.6971 105.861C95.6328 105.417 90.5951 103.314 89.6114 98.3601M96.6971 105.861L89.6114 98.3601M89.6114 98.3601C88.7743 94.1281 91.4712 90.7064 91.9645 90.0806M89.6114 98.3601L91.9645 90.0806M91.9645 90.0806L91.9741 90.0684L91.9645 90.0806ZM68.0595 92.2469L68.0595 92.2464C68.107 88.4932 67.8913 84.7418 67.4144 81.0199C69.073 82.052 70.8593 82.8656 72.729 83.4393L72.7298 83.4396C75.058 84.1496 76.9676 84.3084 78.7435 84.4469C80.8622 84.6134 82.3645 84.5506 84.711 84.4479C88.3478 84.289 91.2186 83.9432 95.1851 83.4576C96.7699 83.2643 98.125 83.0849 99.1529 82.9433V84.597C98.5069 84.8612 97.8736 85.1558 97.2551 85.4797L97.2546 85.48L97.228 85.4939C95.904 86.1892 93.3598 87.5254 91.5829 89.757L91.5814 89.759L91.5668 89.7775C91.0607 90.4192 88.2388 93.9974 89.1209 98.4571L89.121 98.4575C89.644 101.091 91.2435 102.951 92.817 104.196C94.3855 105.438 95.9599 106.095 96.5024 106.322L96.5069 106.323L96.5088 106.324C98.1311 106.994 99.8656 107.342 101.617 107.353C101.882 108.517 102.146 109.681 102.409 110.846C100.114 111.515 97.7845 112.059 95.4308 112.477C89.6906 113.487 83.8443 113.751 78.0369 113.261L78.0367 113.261C73.8331 112.907 69.6714 112.164 65.6052 111.04C65.801 110.263 66.0355 109.281 66.2767 108.137C67.3896 102.912 67.9868 97.5895 68.0595 92.2469Z" fill="#FFD66D" stroke="#484848"/>
<path id="I" d="M48.0758 215.307L48.0757 215.307C47.5793 215.366 47.1107 215.384 46.6712 215.396C46.6083 215.398 46.5461 215.4 46.4846 215.402C46.1109 215.412 45.7623 215.421 45.4148 215.451C44.6232 215.518 43.87 215.687 43.0464 216.196C42.4682 216.555 41.6922 217.078 41.5306 217.973L48.0758 215.307ZM48.0758 215.307C50.5479 215.015 52.3232 213.755 55.5853 211.439L55.6726 211.377L55.673 211.377M48.0758 215.307L55.673 211.377M42.4509 220.14L42.4514 220.141C42.7897 220.336 43.1675 220.337 44.303 220.267L44.3034 220.267C44.8403 220.234 45.2151 220.173 45.5731 220.104C45.6552 220.089 45.7381 220.072 45.8231 220.055C46.1072 219.998 46.4139 219.937 46.7867 219.886L46.7938 219.885C47.7952 219.764 48.8078 219.763 49.8093 219.884C51.1668 219.978 52.3446 219.704 53.7342 219.318C53.9117 219.268 54.0925 219.217 54.2772 219.165C55.5371 218.809 56.9795 218.401 58.8068 218.157C60.9018 217.878 62.1393 217.996 63.2057 218.097C63.2912 218.105 63.3755 218.114 63.4591 218.121C64.5425 218.221 65.5092 218.271 67.2697 217.786C68.1564 217.542 69.0836 217.278 69.9052 216.866C70.7213 216.456 71.3961 215.919 71.808 215.151C72.1733 214.469 72.2286 213.801 72.1306 212.975C72.0808 212.555 71.9927 212.104 71.888 211.592C71.8754 211.53 71.8626 211.468 71.8497 211.405C71.7557 210.947 71.6527 210.445 71.5616 209.898L71.5615 209.898C71.2639 208.103 71.4266 205.577 71.7397 200.718L71.7497 200.564L71.7498 200.562C72.0913 195.499 72.8073 190.467 73.8921 185.508M42.4509 220.14L74.381 185.612M42.4509 220.14C41.7892 219.76 41.3808 218.808 41.5306 217.973L42.4509 220.14ZM73.8921 185.508C73.8922 185.507 73.8924 185.506 73.8926 185.505L74.381 185.612M73.8921 185.508C73.8919 185.508 73.8917 185.509 73.8916 185.51L74.381 185.612M73.8921 185.508C74.4747 182.718 74.9232 181.406 75.2463 180.462L75.253 180.442C75.5649 179.53 75.7437 179.002 75.8204 177.707L75.8204 177.707C75.9161 176.098 75.804 174.866 75.6823 173.528C75.6644 173.331 75.6462 173.132 75.6285 172.928C75.4903 171.342 75.3837 169.566 75.6278 166.933L75.6279 166.932C75.6539 166.658 75.6737 166.478 75.7122 166.128C75.7626 165.668 75.8452 164.917 76.0161 163.277M74.381 185.612C74.9576 182.851 75.3994 181.559 75.7179 180.628C76.0419 179.681 76.2384 179.106 76.3195 177.736C76.4176 176.088 76.3019 174.819 76.1801 173.481C76.0225 171.75 75.8545 169.905 76.1257 166.979C76.1516 166.707 76.171 166.53 76.2089 166.184C76.259 165.729 76.3413 164.979 76.5134 163.329M76.0161 163.277L76.5134 163.329M76.0161 163.277C76.0161 163.277 76.0161 163.277 76.0161 163.277L76.5134 163.329M76.0161 163.277C76.2721 160.817 76.4472 159.039 76.5418 158.079C76.5653 157.84 76.5839 157.652 76.5974 157.516L76.5974 157.516C76.9617 153.89 77.5242 150.688 78.1414 147.174L78.1533 147.107L78.1533 147.106C78.8067 143.401 79.7629 138.937 81.6463 130.183L81.6463 130.183C82.0952 128.099 82.4738 126.353 82.7413 125.119L82.8095 124.804L83.1304 123.324L83.7538 124.704C87.491 132.976 89.0629 139.719 89.8015 144.426C89.9156 145.153 90.0225 145.91 90.1365 146.718C90.5028 149.314 90.942 152.428 91.9271 156.685M76.5134 163.329L91.9271 156.685M83.2982 124.91L83.2297 125.226C83.1948 125.387 83.158 125.557 83.1194 125.735C83.0284 125.529 82.9362 125.323 82.8425 125.116L83.2982 124.91ZM83.2982 124.91C83.4151 125.169 83.5298 125.426 83.6425 125.682C83.6684 125.562 83.6935 125.446 83.7177 125.335L83.7868 125.016L83.2982 124.91ZM91.9271 156.685C91.9271 156.685 91.927 156.685 91.927 156.685L91.44 156.798L91.9271 156.685ZM105.675 137.632C106.044 141.814 106.116 144.046 106.191 146.353C106.194 146.46 106.198 146.568 106.201 146.676C106.281 149.112 106.378 151.729 106.838 156.843L106.838 156.843C107.467 163.835 108.067 167.593 108.584 170.839C108.614 171.025 108.643 171.21 108.673 171.394C109.208 174.758 109.648 177.726 109.938 183.524L109.938 183.524C109.953 183.82 109.967 184.126 109.983 184.443C110.121 187.344 110.302 191.132 111.107 196.255L111.107 196.256C111.248 197.147 111.372 197.982 111.489 198.767C111.77 200.655 112.009 202.256 112.334 203.661C112.8 205.675 113.454 207.337 114.692 208.966L114.692 208.966L114.694 208.97C115.356 209.84 116.924 211.903 119.699 213.401C121.317 214.275 122.703 214.607 123.946 214.905C124.135 214.95 124.32 214.994 124.503 215.04C125.877 215.382 127.122 215.785 128.528 216.99C128.933 217.338 129.47 217.809 129.886 218.379C130.302 218.949 130.558 219.563 130.489 220.207L130.489 220.207C130.429 220.762 130.141 221.225 129.828 221.573C129.516 221.919 129.207 222.119 129.17 222.141L129.167 222.143C128.516 222.556 127.65 222.767 123.928 221.887C121.689 221.358 120.351 220.895 119.263 220.519C119.136 220.475 119.012 220.432 118.891 220.391C117.712 219.987 116.75 219.696 115.128 219.57L115.121 219.569L115.114 219.569C114.164 219.523 113.219 219.398 112.29 219.196C111.084 218.927 109.965 218.674 108.766 217.917C108.129 217.514 106.382 216.395 105.882 214.496C105.702 213.754 105.702 212.981 105.883 212.24L105.885 212.231L105.887 212.221C106.144 210.958 106.091 209.664 105.686 207.817C105.284 205.982 104.526 203.566 103.351 200.053L103.351 200.053L106.173 137.588M105.675 137.632L106.173 137.588M105.675 137.632C105.675 137.632 105.675 137.632 105.675 137.632L106.173 137.588M105.675 137.632C104.961 129.566 103.771 121.549 102.11 113.622M106.173 137.588C105.456 129.493 104.261 121.446 102.593 113.49C102.437 113.533 102.276 113.577 102.11 113.622M102.11 113.622C102.075 113.458 102.041 113.295 102.006 113.132C102.172 113.087 102.334 113.043 102.49 113L61.9745 160.063L62.474 160.04C62.474 160.04 62.474 160.04 62.474 160.04C62.0863 151.662 61.7545 144.124 62.4731 134.552C62.9959 127.589 63.9901 120.668 65.4487 113.837C66.3916 114.135 67.6055 114.492 69.0315 114.831L69.0316 114.831C74.252 116.07 78.3377 116.145 81.7409 116.189L81.7413 116.189C86.4515 116.246 91.1565 115.858 95.7922 115.029M102.11 113.622C100.459 114.065 98.3167 114.58 95.7922 115.029M95.7922 115.029C95.7924 115.029 95.7926 115.029 95.7927 115.029L95.7047 114.537L95.7922 115.029ZM55.673 211.377L55.6824 211.37C57.0497 210.401 59.8504 208.416 61.5991 206.082L55.673 211.377ZM94.8375 166.878C94.8375 166.878 94.8374 166.878 94.8374 166.878L94.3545 166.978L94.8375 166.878ZM109.078 170.76C108.561 167.519 107.964 163.773 107.336 156.798L110.437 183.499C110.131 177.361 109.654 174.374 109.078 170.76ZM63.8788 191.337C63.8614 191.198 63.8442 191.062 63.8277 190.929L61.5993 206.082C65.1415 201.358 64.3703 195.238 63.8788 191.337ZM95.7047 177.16L96.1964 177.069C96.1964 177.069 96.1963 177.069 96.1963 177.069L95.7047 177.16Z" fill="#F6F6F6" stroke="#484848"/>
<g id="Group 44">
<path id="&#239;&#188;&#163;" d="M80.4971 33.0509C82.2534 33.0509 83.5393 32.4707 84.6683 31.3573L83.4138 29.8362C82.7081 30.5105 81.7359 31.028 80.6068 31.028C78.4271 31.028 77.0001 29.5539 77.0001 27.0292C77.0001 24.5515 78.4114 23.0147 80.5755 23.0147C81.5948 23.0147 82.4416 23.4538 83.1315 24.034L84.4017 22.5443C83.5236 21.7445 82.2377 21.0232 80.5441 21.0232C77.0942 21.0232 74.6322 23.297 74.6322 27.1076C74.6322 30.9652 77.1569 33.0509 80.4971 33.0509Z" fill="#484848"/>
<path id="&#239;&#188;&#162;" d="M40.7367 24.5317H45.3314C48.4049 24.5317 50.2553 23.4967 50.2553 21.1131C50.2553 19.5763 49.2988 18.6668 47.8718 18.3689V18.3062C49.0008 17.9455 49.581 16.8635 49.581 15.7971C49.581 13.586 47.7149 12.8804 44.9707 12.8804H40.7367V24.5317ZM43.0419 17.6475V14.6524H45.0177C46.4918 14.6524 47.2915 15.0444 47.2915 16.1421C47.2915 17.1457 46.4604 17.6475 44.9707 17.6475H43.0419ZM43.0419 22.744V19.3882H45.2686C47.072 19.3882 47.9502 19.8586 47.9502 20.9877C47.9502 22.2736 47.0406 22.744 45.3 22.744H43.0419Z" fill="#484848"/>
<path id="&#239;&#188;&#164;" d="M79.6425 53.9345H83.2492C87.0755 53.9345 89.5061 51.9743 89.5061 48.054C89.5061 44.1179 87.0755 42.2832 83.1081 42.2832H79.6425V53.9345ZM81.9319 52.0684V44.1493H82.9983C85.523 44.1493 87.1225 45.1529 87.1225 48.054C87.1225 50.9707 85.523 52.0684 82.9983 52.0684H81.9319Z" fill="#484848"/>
<path id="&#239;&#188;&#165;" d="M40.8424 76.967H49.0124V75.0225H43.1476V71.9332H47.4913V69.9731H43.1476V67.2445H48.8086V65.3157H40.8424V76.967Z" fill="#484848"/>
<path id="&#239;&#188;&#165;_2" d="M112.389 76.967H120.559V75.0225H114.694V71.9332H119.038V69.9731H114.694V67.2445H120.355V65.3157H112.389V76.967Z" fill="#484848"/>
<path id="&#239;&#188;&#167;" d="M78.8386 104.123C80.7831 104.123 82.0847 103.496 82.9785 102.728V97.5213H78.4152V99.4188H80.9243V101.677C80.5166 101.943 79.7482 102.116 79.0895 102.116C76.5335 102.116 75.0281 100.611 75.0281 98.0858C75.0281 95.5925 76.6903 94.0714 78.8386 94.0714C80.0775 94.0714 80.8616 94.5105 81.5359 95.075L82.8374 93.5853C81.9749 92.8169 80.7047 92.0798 78.7759 92.0798C75.3574 92.0798 72.6602 94.3693 72.6602 98.1642C72.6602 102.006 75.279 104.123 78.8386 104.123Z" fill="#484848"/>
<path id="&#239;&#188;&#168;" d="M94.9788 101.469H97.2996V96.4511H102.663V101.469H104.952V89.8179H102.663V94.4439H97.2996V89.8179H94.9788V101.469Z" fill="#484848"/>
<path id="&#239;&#188;&#169;" d="M93.2185 143.613H101.875V141.7H98.6913V133.922H101.875V131.961H93.2185V133.922H96.3548V141.7H93.2185V143.613Z" fill="#484848"/>
<path id="Arrow 7 (Stroke)" fill-rule="evenodd" clip-rule="evenodd" d="M63.3816 25.0916L57.1443 18.8543C56.7615 18.4716 56.7615 17.851 57.1443 17.4683L63.3815 11.231C63.7643 10.8483 64.3849 10.8483 64.7676 11.231C65.1504 11.6138 65.1504 12.2343 64.7676 12.6171L60.2035 17.1812L75.969 17.1812L75.969 19.1414L60.2035 19.1414L64.7676 23.7055C65.1504 24.0883 65.1504 24.7089 64.7676 25.0916C64.3849 25.4744 63.7643 25.4744 63.3816 25.0916Z" fill="#484848"/>
<path id="&#239;&#188;&#166;" d="M81.2616 77.457H83.5668V72.7682H87.9733V70.808H83.5668V67.7345H89.2905V65.8057H81.2616V77.457Z" fill="#484848"/>
<g id="&#239;&#188;&#161;">
<path id="&#239;&#188;&#161;_2" d="M87.4282 15.7111H89.8902L90.8468 12.7473H95.2376L96.1942 15.7111H98.7502L94.5319 4.05981H91.5838L87.4282 15.7111ZM91.3486 10.9597L91.7877 9.65809C92.1797 8.43494 92.6188 7.08633 92.9951 5.81614H93.0579C93.4656 7.07065 93.9047 8.43494 94.2967 9.65809L94.7358 10.9597H91.3486Z" fill="#484848"/>
</g>
</g>
<g id="Group 34">
<path id="Rectangle 27" d="M3 250H74V245H3V250Z" fill="url(#paint0_linear_174_24628)"/>
<g id="&#233;&#150;&#139;&#229;&#191;&#131; &#228;&#184;&#141;&#233;&#150;&#139;&#229;&#191;&#131;">
<path d="M5.96409 236.748H12.2691V237.983H5.96409V236.748ZM5.76909 238.971H12.4771V240.245H5.76909V238.971ZM9.66909 237.138H11.0341V242.936H9.66909V237.138ZM7.13409 237.19H8.46009V239.686C8.46009 240.518 8.10909 242.234 6.74408 243.17C6.53609 242.897 6.06808 242.481 5.74308 242.273C6.84809 241.597 7.13409 240.336 7.13409 239.673V237.19ZM4.41709 233.238H7.69309V234.252H4.41709V233.238ZM10.4491 233.238H13.7381V234.252H10.4491V233.238ZM13.1271 231.457H14.6611V241.363C14.6611 242.143 14.5181 242.585 14.0501 242.845C13.5691 243.105 12.8931 243.144 11.8921 243.131C11.8531 242.715 11.6451 241.987 11.4371 241.584C12.0091 241.61 12.6591 241.61 12.8541 241.61C13.0621 241.61 13.1271 241.532 13.1271 241.337V231.457ZM4.56009 231.457H8.68109V236.085H4.56009V234.967H7.21209V232.575H4.56009V231.457ZM13.9201 231.457V232.575H11.0081V234.993H13.9201V236.111H9.52608V231.457H13.9201ZM3.63708 231.457H5.17109V243.17H3.63708V231.457Z" fill="#A4A1A1"/>
<path d="M19.4841 234.681H21.1091V240.895C21.1091 241.532 21.2131 241.623 21.8241 241.623C22.0971 241.623 23.2671 241.623 23.6051 241.623C24.2421 241.623 24.3461 241.194 24.4501 239.153C24.8011 239.439 25.4641 239.725 25.9061 239.829C25.7241 242.273 25.2951 243.04 23.7351 243.04C23.3841 243.04 21.9541 243.04 21.6161 243.04C19.9521 243.04 19.4841 242.533 19.4841 240.895V234.681ZM19.5361 232.211L20.5501 231.002C22.0841 231.548 23.8781 232.523 24.9181 233.277L23.8781 234.655C22.8901 233.823 21.0701 232.809 19.5361 232.211ZM17.1441 235.604L18.6781 235.916C18.4831 237.723 18.1451 239.725 17.2871 240.999L15.8311 240.167C16.5981 239.049 16.9751 237.346 17.1441 235.604ZM24.6321 235.812L26.0621 235.097C27.1801 236.527 28.1161 238.438 28.4281 239.803L26.8421 240.583C26.5821 239.244 25.6721 237.242 24.6321 235.812Z" fill="#A4A1A1"/>
<path d="M36.209 231.834H47.545V233.433H36.209V231.834ZM42.488 236.189L43.697 235.175C45.088 236.189 47.09 237.684 48.039 238.724L46.713 239.92C45.855 238.893 43.931 237.294 42.488 236.189ZM41.968 232.419L43.71 233.03C42.228 235.773 39.862 238.425 36.872 239.985C36.625 239.569 36.131 238.919 35.806 238.568C38.588 237.255 40.889 234.733 41.968 232.419ZM41.019 235.565L42.735 233.862V243.144H41.019V235.565Z" fill="#A4A1A1"/>
<path d="M51.718 236.748H58.023V237.983H51.718V236.748ZM51.523 238.971H58.231V240.245H51.523V238.971ZM55.423 237.138H56.788V242.936H55.423V237.138ZM52.888 237.19H54.214V239.686C54.214 240.518 53.863 242.234 52.498 243.17C52.29 242.897 51.822 242.481 51.497 242.273C52.602 241.597 52.888 240.336 52.888 239.673V237.19ZM50.171 233.238H53.447V234.252H50.171V233.238ZM56.203 233.238H59.492V234.252H56.203V233.238ZM58.881 231.457H60.415V241.363C60.415 242.143 60.272 242.585 59.804 242.845C59.323 243.105 58.647 243.144 57.646 243.131C57.607 242.715 57.399 241.987 57.191 241.584C57.763 241.61 58.413 241.61 58.608 241.61C58.816 241.61 58.881 241.532 58.881 241.337V231.457ZM50.314 231.457H54.435V236.085H50.314V234.967H52.966V232.575H50.314V231.457ZM59.674 231.457V232.575H56.762V234.993H59.674V236.111H55.28V231.457H59.674ZM49.391 231.457H50.925V243.17H49.391V231.457Z" fill="#A4A1A1"/>
<path d="M65.238 234.681H66.863V240.895C66.863 241.532 66.967 241.623 67.578 241.623C67.851 241.623 69.021 241.623 69.359 241.623C69.996 241.623 70.1 241.194 70.204 239.153C70.555 239.439 71.218 239.725 71.66 239.829C71.478 242.273 71.049 243.04 69.489 243.04C69.138 243.04 67.708 243.04 67.37 243.04C65.706 243.04 65.238 242.533 65.238 240.895V234.681ZM65.29 232.211L66.304 231.002C67.838 231.548 69.632 232.523 70.672 233.277L69.632 234.655C68.644 233.823 66.824 232.809 65.29 232.211ZM62.898 235.604L64.432 235.916C64.237 237.723 63.899 239.725 63.041 240.999L61.585 240.167C62.352 239.049 62.729 237.346 62.898 235.604ZM70.386 235.812L71.816 235.097C72.934 236.527 73.87 238.438 74.182 239.803L72.596 240.583C72.336 239.244 71.426 237.242 70.386 235.812Z" fill="#A4A1A1"/>
</g>
</g>
</g>
<defs>
<linearGradient id="paint0_linear_174_24628" x1="3" y1="247.5" x2="73.8701" y2="244.306" gradientUnits="userSpaceOnUse">
<stop stop-color="#FEF8EA"/>
<stop offset="1" stop-color="#FFBC11"/>
</linearGradient>
</defs>
</svg>
